<svg xmlns="http://www.w3.org/2000/svg" viewBox="0 0 363 350"><path d="M 5 191 L 4 192 L 4 193 L 3 194 L 3 195 L 4 196 L 4 197 L 5 198 L 6 198 L 7 197 L 7 196 L 8 195 L 8 194 L 7 193 L 7 192 L 6 191 Z" fill="black" /><path d="M 2 178 L 0 180 L 0 185 L 1 186 L 1 187 L 5 187 L 7 185 L 7 180 L 5 178 Z" fill="black" /><path d="M 154 0 L 153 1 L 146 1 L 145 2 L 139 2 L 138 3 L 134 3 L 133 4 L 129 4 L 128 5 L 125 5 L 124 6 L 121 6 L 120 7 L 118 7 L 117 8 L 115 8 L 114 9 L 112 9 L 111 10 L 109 10 L 108 11 L 106 11 L 105 12 L 103 12 L 102 13 L 101 13 L 100 14 L 99 14 L 98 15 L 96 15 L 95 16 L 94 16 L 93 17 L 92 17 L 91 18 L 90 18 L 89 19 L 88 19 L 87 20 L 86 20 L 85 21 L 84 21 L 82 23 L 81 23 L 80 24 L 79 24 L 78 25 L 77 25 L 75 27 L 74 27 L 72 29 L 71 29 L 69 31 L 68 31 L 65 34 L 64 34 L 60 38 L 59 38 L 53 44 L 52 44 L 42 54 L 42 55 L 36 61 L 36 62 L 32 66 L 32 67 L 29 70 L 29 71 L 27 73 L 27 74 L 25 76 L 25 77 L 23 79 L 23 80 L 22 81 L 22 82 L 20 84 L 20 85 L 19 86 L 19 87 L 18 88 L 18 89 L 17 90 L 17 91 L 16 92 L 16 93 L 15 94 L 15 95 L 14 96 L 14 98 L 13 99 L 13 100 L 12 101 L 12 102 L 11 103 L 11 105 L 10 106 L 10 108 L 9 109 L 9 111 L 8 112 L 8 114 L 7 115 L 7 118 L 6 119 L 6 122 L 5 123 L 5 127 L 4 128 L 4 132 L 3 133 L 3 140 L 2 141 L 2 172 L 3 173 L 3 171 L 4 170 L 4 165 L 5 164 L 5 161 L 6 160 L 6 157 L 7 156 L 7 153 L 8 152 L 8 149 L 9 148 L 9 146 L 10 145 L 10 142 L 11 141 L 11 139 L 12 138 L 12 136 L 13 135 L 13 133 L 14 132 L 14 131 L 15 130 L 15 128 L 16 127 L 16 126 L 17 125 L 17 123 L 18 122 L 18 121 L 19 120 L 19 119 L 20 118 L 20 116 L 21 115 L 21 114 L 22 113 L 22 112 L 23 111 L 23 110 L 24 109 L 24 108 L 26 106 L 26 105 L 27 104 L 27 103 L 28 102 L 28 101 L 30 99 L 30 98 L 32 96 L 32 95 L 33 94 L 33 93 L 36 90 L 36 89 L 38 87 L 38 86 L 42 82 L 42 81 L 49 74 L 49 73 L 56 66 L 57 66 L 65 58 L 66 58 L 69 55 L 70 55 L 73 52 L 74 52 L 76 50 L 77 50 L 79 48 L 80 48 L 82 46 L 83 46 L 84 45 L 85 45 L 86 44 L 87 44 L 89 42 L 90 42 L 91 41 L 92 41 L 93 40 L 94 40 L 95 39 L 96 39 L 97 38 L 99 38 L 100 37 L 101 37 L 102 36 L 104 36 L 105 35 L 106 35 L 107 34 L 109 34 L 110 33 L 112 33 L 113 32 L 115 32 L 116 31 L 119 31 L 120 30 L 122 30 L 123 29 L 126 29 L 127 28 L 130 28 L 131 27 L 135 27 L 136 26 L 141 26 L 142 25 L 148 25 L 149 24 L 158 24 L 159 23 L 182 23 L 183 24 L 192 24 L 193 25 L 199 25 L 200 26 L 205 26 L 206 27 L 209 27 L 210 28 L 213 28 L 214 29 L 217 29 L 218 30 L 220 30 L 221 31 L 223 31 L 224 32 L 226 32 L 227 33 L 229 33 L 230 34 L 231 34 L 232 35 L 234 35 L 235 36 L 236 36 L 237 37 L 238 37 L 239 38 L 240 38 L 241 39 L 242 39 L 243 40 L 244 40 L 245 41 L 246 41 L 247 42 L 248 42 L 250 44 L 251 44 L 253 46 L 254 46 L 255 47 L 256 47 L 259 50 L 260 50 L 263 53 L 264 53 L 268 57 L 269 57 L 284 72 L 284 73 L 289 78 L 289 79 L 292 82 L 292 83 L 294 85 L 294 86 L 297 89 L 297 90 L 298 91 L 298 92 L 300 94 L 300 95 L 302 97 L 302 98 L 303 99 L 303 100 L 304 101 L 304 102 L 305 103 L 305 104 L 306 105 L 306 106 L 307 107 L 307 108 L 308 109 L 308 110 L 309 111 L 309 112 L 310 113 L 310 115 L 311 116 L 311 117 L 312 118 L 312 120 L 313 121 L 313 123 L 314 124 L 314 126 L 315 127 L 315 129 L 316 130 L 316 132 L 317 133 L 317 136 L 318 137 L 318 140 L 319 141 L 319 145 L 320 146 L 320 151 L 321 152 L 321 157 L 322 158 L 322 167 L 323 168 L 323 192 L 322 193 L 322 199 L 321 200 L 321 204 L 320 205 L 320 208 L 319 209 L 319 211 L 318 212 L 318 215 L 317 216 L 317 218 L 316 219 L 316 220 L 315 221 L 315 223 L 314 224 L 314 226 L 313 227 L 313 228 L 312 229 L 312 231 L 311 232 L 311 233 L 310 234 L 310 235 L 309 236 L 309 237 L 308 238 L 308 239 L 307 240 L 307 241 L 306 242 L 306 243 L 305 244 L 305 245 L 303 247 L 303 248 L 302 249 L 302 250 L 300 252 L 300 253 L 299 254 L 299 255 L 297 257 L 297 258 L 294 261 L 294 262 L 291 265 L 291 266 L 286 271 L 286 272 L 270 288 L 269 288 L 265 292 L 264 292 L 260 296 L 259 296 L 257 298 L 256 298 L 253 301 L 252 301 L 251 302 L 250 302 L 248 304 L 247 304 L 245 306 L 244 306 L 243 307 L 242 307 L 241 308 L 240 308 L 239 309 L 238 309 L 237 310 L 236 310 L 235 311 L 233 311 L 232 312 L 231 312 L 230 313 L 228 313 L 227 314 L 225 314 L 224 315 L 221 315 L 220 316 L 217 316 L 216 317 L 210 317 L 209 318 L 193 318 L 192 317 L 188 317 L 187 316 L 184 316 L 183 315 L 182 315 L 181 314 L 180 314 L 179 313 L 178 313 L 177 312 L 176 312 L 167 303 L 167 302 L 165 300 L 165 299 L 164 298 L 164 297 L 163 296 L 163 295 L 162 294 L 162 292 L 161 291 L 161 288 L 160 287 L 160 282 L 159 281 L 159 275 L 162 272 L 164 272 L 165 271 L 168 271 L 169 270 L 172 270 L 173 269 L 176 269 L 177 268 L 179 268 L 180 267 L 182 267 L 183 266 L 184 266 L 185 265 L 187 265 L 188 264 L 189 264 L 190 263 L 192 263 L 193 262 L 194 262 L 195 261 L 196 261 L 197 260 L 198 260 L 199 259 L 200 259 L 201 258 L 202 258 L 203 257 L 204 257 L 206 255 L 207 255 L 208 254 L 209 254 L 211 252 L 212 252 L 213 251 L 214 251 L 216 249 L 217 249 L 220 246 L 221 246 L 224 243 L 225 243 L 230 238 L 231 238 L 246 223 L 246 222 L 250 218 L 250 217 L 253 214 L 253 213 L 256 210 L 256 209 L 258 207 L 258 206 L 259 205 L 259 204 L 261 202 L 261 201 L 262 200 L 262 199 L 263 198 L 263 197 L 264 196 L 264 195 L 265 194 L 265 193 L 266 192 L 266 191 L 267 190 L 267 189 L 268 188 L 268 187 L 269 186 L 269 185 L 270 184 L 270 183 L 271 182 L 271 180 L 272 179 L 272 178 L 273 177 L 273 175 L 274 174 L 274 172 L 275 171 L 275 169 L 276 168 L 276 166 L 277 165 L 277 162 L 278 161 L 278 158 L 279 157 L 279 153 L 280 152 L 280 146 L 281 145 L 281 129 L 280 128 L 280 122 L 279 121 L 279 117 L 278 116 L 278 113 L 277 112 L 277 110 L 276 109 L 276 108 L 275 107 L 275 105 L 274 104 L 274 103 L 273 102 L 273 101 L 271 99 L 271 98 L 270 97 L 270 96 L 268 94 L 268 93 L 265 90 L 265 89 L 253 77 L 252 77 L 248 73 L 247 73 L 245 71 L 244 71 L 242 69 L 241 69 L 240 68 L 239 68 L 238 67 L 237 67 L 236 66 L 235 66 L 234 65 L 233 65 L 232 64 L 231 64 L 230 63 L 229 63 L 228 62 L 226 62 L 225 61 L 224 61 L 223 60 L 221 60 L 220 59 L 217 59 L 216 58 L 213 58 L 212 57 L 209 57 L 208 56 L 204 56 L 203 55 L 197 55 L 196 54 L 180 54 L 179 53 L 176 53 L 175 54 L 160 54 L 159 55 L 153 55 L 152 56 L 148 56 L 147 57 L 143 57 L 142 58 L 139 58 L 138 59 L 135 59 L 134 60 L 132 60 L 131 61 L 129 61 L 128 62 L 126 62 L 125 63 L 124 63 L 123 64 L 121 64 L 120 65 L 119 65 L 118 66 L 116 66 L 115 67 L 114 67 L 113 68 L 112 68 L 111 69 L 110 69 L 109 70 L 108 70 L 107 71 L 106 71 L 105 72 L 104 72 L 102 74 L 101 74 L 100 75 L 99 75 L 97 77 L 96 77 L 95 78 L 94 78 L 92 80 L 91 80 L 89 82 L 88 82 L 85 85 L 84 85 L 81 88 L 80 88 L 75 93 L 74 93 L 64 103 L 64 104 L 59 109 L 59 110 L 57 112 L 57 113 L 54 116 L 54 117 L 53 118 L 53 119 L 51 121 L 51 122 L 50 123 L 50 124 L 49 125 L 49 126 L 48 127 L 48 128 L 47 129 L 47 130 L 46 131 L 46 132 L 45 133 L 45 135 L 44 136 L 44 138 L 43 139 L 43 142 L 42 143 L 42 148 L 41 149 L 41 158 L 42 159 L 42 164 L 43 165 L 43 168 L 44 169 L 44 170 L 45 171 L 45 172 L 46 173 L 46 174 L 47 175 L 47 176 L 51 180 L 51 181 L 54 184 L 55 184 L 59 188 L 60 188 L 62 190 L 63 190 L 64 191 L 65 191 L 66 192 L 67 192 L 68 193 L 69 193 L 70 194 L 71 194 L 72 195 L 74 195 L 75 196 L 77 196 L 78 197 L 81 197 L 82 198 L 84 198 L 84 196 L 85 195 L 85 191 L 86 190 L 86 186 L 87 185 L 87 181 L 88 180 L 88 178 L 89 177 L 89 174 L 90 173 L 90 171 L 91 170 L 91 168 L 92 167 L 92 165 L 93 164 L 93 162 L 94 161 L 94 159 L 95 158 L 95 157 L 96 156 L 96 155 L 97 154 L 97 153 L 98 152 L 98 150 L 99 149 L 99 148 L 101 146 L 101 145 L 102 144 L 102 143 L 103 142 L 103 141 L 105 139 L 105 138 L 106 137 L 106 136 L 109 133 L 109 132 L 112 129 L 112 128 L 117 123 L 117 122 L 124 115 L 125 115 L 131 109 L 132 109 L 135 106 L 136 106 L 138 104 L 139 104 L 141 102 L 142 102 L 143 101 L 144 101 L 145 100 L 146 100 L 147 99 L 148 99 L 149 98 L 150 98 L 151 97 L 152 97 L 153 96 L 155 96 L 156 95 L 157 95 L 158 94 L 161 94 L 162 93 L 165 93 L 166 92 L 170 92 L 171 91 L 192 91 L 193 92 L 197 92 L 198 93 L 201 93 L 202 94 L 204 94 L 205 95 L 207 95 L 208 96 L 209 96 L 210 97 L 211 97 L 212 98 L 213 98 L 214 99 L 215 99 L 216 100 L 217 100 L 220 103 L 221 103 L 231 113 L 231 114 L 233 116 L 233 117 L 235 119 L 235 120 L 236 121 L 236 122 L 237 123 L 237 124 L 238 125 L 238 126 L 239 127 L 239 129 L 240 130 L 240 131 L 241 132 L 241 135 L 242 136 L 242 142 L 243 143 L 243 149 L 242 150 L 242 156 L 241 157 L 241 160 L 240 161 L 240 163 L 239 164 L 239 166 L 238 167 L 238 168 L 237 169 L 237 170 L 236 171 L 236 172 L 235 173 L 235 174 L 234 175 L 234 176 L 233 177 L 233 178 L 231 180 L 231 181 L 229 183 L 229 184 L 227 186 L 227 187 L 222 192 L 222 193 L 213 202 L 212 202 L 207 207 L 206 207 L 203 210 L 202 210 L 200 212 L 199 212 L 197 214 L 196 214 L 194 216 L 193 216 L 192 217 L 191 217 L 189 219 L 188 219 L 187 220 L 186 220 L 185 221 L 184 221 L 183 222 L 182 222 L 181 223 L 180 223 L 179 224 L 178 224 L 177 225 L 176 225 L 175 226 L 174 226 L 173 227 L 172 227 L 171 228 L 170 228 L 169 229 L 167 229 L 166 230 L 164 230 L 163 231 L 162 231 L 161 232 L 158 232 L 157 233 L 155 233 L 154 234 L 150 234 L 149 235 L 139 235 L 136 232 L 136 230 L 135 229 L 135 228 L 136 227 L 136 224 L 137 223 L 137 221 L 138 220 L 138 219 L 139 218 L 139 217 L 140 216 L 140 215 L 141 214 L 141 213 L 142 212 L 142 211 L 143 210 L 143 209 L 144 208 L 144 207 L 145 206 L 145 205 L 147 203 L 147 202 L 148 201 L 148 200 L 150 198 L 150 197 L 153 194 L 153 193 L 155 191 L 155 190 L 158 187 L 158 186 L 161 183 L 161 182 L 164 179 L 164 178 L 167 175 L 167 174 L 171 170 L 171 169 L 174 166 L 174 165 L 177 162 L 177 161 L 181 157 L 181 156 L 184 153 L 184 152 L 188 148 L 188 147 L 191 144 L 191 143 L 194 140 L 194 139 L 199 134 L 199 133 L 205 127 L 205 126 L 207 124 L 207 123 L 205 123 L 204 122 L 201 122 L 200 121 L 197 121 L 196 120 L 192 120 L 191 119 L 171 119 L 170 120 L 167 120 L 166 121 L 164 121 L 163 122 L 162 122 L 161 123 L 160 123 L 158 125 L 157 125 L 148 134 L 148 135 L 144 139 L 144 140 L 141 143 L 141 144 L 138 147 L 138 148 L 136 150 L 136 151 L 133 154 L 133 155 L 130 158 L 130 159 L 128 161 L 128 162 L 125 165 L 125 166 L 123 168 L 123 169 L 121 171 L 121 172 L 118 175 L 118 176 L 116 178 L 116 179 L 114 181 L 114 182 L 112 184 L 112 185 L 110 187 L 110 188 L 108 190 L 108 191 L 106 193 L 106 194 L 104 196 L 104 197 L 102 199 L 102 200 L 100 202 L 100 203 L 98 205 L 98 206 L 97 207 L 97 208 L 95 210 L 95 211 L 93 213 L 93 214 L 91 216 L 91 217 L 90 218 L 90 219 L 88 221 L 88 222 L 87 223 L 87 224 L 85 226 L 85 227 L 84 228 L 84 229 L 82 231 L 82 232 L 81 233 L 81 234 L 79 236 L 79 237 L 78 238 L 78 239 L 77 240 L 77 241 L 75 243 L 75 244 L 74 245 L 74 246 L 72 248 L 72 249 L 71 250 L 71 251 L 70 252 L 70 253 L 69 254 L 69 255 L 67 257 L 67 258 L 66 259 L 66 260 L 65 261 L 65 262 L 64 263 L 64 264 L 63 265 L 63 266 L 62 267 L 62 268 L 61 269 L 61 270 L 60 271 L 60 272 L 59 273 L 59 274 L 58 275 L 58 276 L 57 277 L 57 278 L 56 279 L 56 280 L 55 281 L 55 282 L 54 283 L 54 285 L 53 286 L 53 287 L 52 288 L 52 289 L 51 290 L 51 292 L 50 293 L 50 294 L 49 295 L 49 297 L 48 298 L 48 300 L 47 301 L 47 303 L 46 304 L 46 306 L 45 307 L 45 310 L 44 311 L 44 314 L 43 315 L 43 334 L 44 335 L 44 338 L 45 339 L 45 341 L 46 342 L 46 343 L 48 345 L 48 346 L 52 350 L 53 350 L 54 351 L 55 351 L 56 352 L 57 352 L 58 353 L 62 353 L 63 354 L 76 354 L 77 353 L 81 353 L 83 351 L 83 349 L 84 348 L 84 346 L 85 345 L 85 343 L 86 342 L 86 340 L 87 339 L 87 337 L 88 336 L 88 334 L 89 333 L 89 331 L 90 330 L 90 329 L 91 328 L 91 326 L 92 325 L 92 323 L 93 322 L 93 321 L 94 320 L 94 318 L 95 317 L 95 316 L 96 315 L 96 314 L 97 313 L 97 311 L 98 310 L 98 309 L 99 308 L 99 307 L 100 306 L 100 305 L 101 304 L 101 303 L 102 302 L 102 301 L 103 300 L 103 299 L 104 298 L 104 297 L 105 296 L 105 295 L 106 294 L 106 293 L 107 292 L 107 291 L 108 290 L 108 289 L 110 287 L 110 286 L 111 285 L 111 284 L 112 283 L 112 282 L 114 280 L 114 279 L 115 278 L 115 277 L 116 276 L 116 275 L 117 274 L 119 276 L 119 292 L 120 293 L 120 300 L 121 301 L 121 305 L 122 306 L 122 309 L 123 310 L 123 313 L 124 314 L 124 316 L 125 317 L 125 319 L 126 320 L 126 322 L 127 323 L 127 324 L 128 325 L 128 326 L 129 327 L 129 329 L 131 331 L 131 332 L 132 333 L 132 334 L 133 335 L 133 336 L 135 338 L 135 339 L 139 343 L 139 344 L 144 349 L 145 349 L 148 352 L 149 352 L 151 354 L 152 354 L 153 355 L 154 355 L 155 356 L 156 356 L 157 357 L 158 357 L 159 358 L 161 358 L 162 359 L 164 359 L 165 360 L 169 360 L 170 361 L 176 361 L 177 362 L 192 362 L 193 361 L 199 361 L 200 360 L 204 360 L 205 359 L 207 359 L 208 358 L 210 358 L 211 357 L 214 357 L 215 356 L 217 356 L 218 355 L 219 355 L 220 354 L 222 354 L 223 353 L 225 353 L 226 352 L 227 352 L 228 351 L 230 351 L 231 350 L 232 350 L 233 349 L 234 349 L 235 348 L 237 348 L 238 347 L 239 347 L 240 346 L 241 346 L 242 345 L 243 345 L 244 344 L 245 344 L 246 343 L 247 343 L 248 342 L 249 342 L 251 340 L 252 340 L 253 339 L 254 339 L 255 338 L 256 338 L 258 336 L 259 336 L 260 335 L 261 335 L 263 333 L 264 333 L 266 331 L 267 331 L 270 328 L 271 328 L 273 326 L 274 326 L 278 322 L 279 322 L 283 318 L 284 318 L 293 309 L 294 309 L 298 305 L 298 304 L 308 294 L 308 293 L 312 289 L 312 288 L 315 285 L 315 284 L 318 281 L 318 280 L 320 278 L 320 277 L 322 275 L 322 274 L 324 272 L 324 271 L 325 270 L 325 269 L 326 268 L 326 267 L 328 265 L 328 264 L 329 263 L 329 262 L 330 261 L 330 260 L 331 259 L 331 258 L 332 257 L 332 256 L 333 255 L 333 254 L 334 253 L 334 252 L 335 251 L 335 249 L 336 248 L 336 247 L 337 246 L 337 244 L 338 243 L 338 242 L 339 241 L 339 239 L 340 238 L 340 236 L 341 235 L 341 233 L 342 232 L 342 229 L 343 228 L 343 225 L 344 224 L 344 221 L 345 220 L 345 217 L 346 216 L 346 211 L 347 210 L 347 204 L 348 203 L 348 194 L 349 193 L 349 164 L 348 163 L 348 154 L 347 153 L 347 148 L 346 147 L 346 142 L 345 141 L 345 138 L 344 137 L 344 134 L 343 133 L 343 130 L 342 129 L 342 127 L 341 126 L 341 124 L 340 123 L 340 121 L 339 120 L 339 118 L 338 117 L 338 115 L 337 114 L 337 113 L 336 112 L 336 110 L 335 109 L 335 108 L 334 107 L 334 106 L 333 105 L 333 104 L 332 103 L 332 101 L 331 100 L 331 99 L 330 98 L 330 97 L 328 95 L 328 94 L 327 93 L 327 92 L 326 91 L 326 90 L 325 89 L 325 88 L 323 86 L 323 85 L 322 84 L 322 83 L 320 81 L 320 80 L 318 78 L 318 77 L 316 75 L 316 74 L 313 71 L 313 70 L 310 67 L 310 66 L 305 61 L 305 60 L 289 44 L 288 44 L 283 39 L 282 39 L 278 35 L 277 35 L 275 33 L 274 33 L 272 31 L 271 31 L 269 29 L 268 29 L 266 27 L 265 27 L 263 25 L 262 25 L 261 24 L 260 24 L 259 23 L 258 23 L 257 22 L 256 22 L 254 20 L 253 20 L 252 19 L 251 19 L 250 18 L 249 18 L 248 17 L 246 17 L 245 16 L 244 16 L 243 15 L 242 15 L 241 14 L 240 14 L 239 13 L 237 13 L 236 12 L 235 12 L 234 11 L 232 11 L 231 10 L 229 10 L 228 9 L 226 9 L 225 8 L 223 8 L 222 7 L 220 7 L 219 6 L 216 6 L 215 5 L 212 5 L 211 4 L 208 4 L 207 3 L 203 3 L 202 2 L 197 2 L 196 1 L 189 1 L 188 0 Z" fill="black" /></svg>